<?xml version="1.0" encoding="utf-8"?>
<!-- Generator: Adobe Illustrator 25.2.0, SVG Export Plug-In . SVG Version: 6.00 Build 0)  -->
<svg version="1.1" id="Layer_1" xmlns="http://www.w3.org/2000/svg" xmlns:xlink="http://www.w3.org/1999/xlink" x="0px" y="0px"
	 viewBox="0 0 1366 768" style="enable-background:new 0 0 1366 768;" xml:space="preserve">
<style type="text/css">
	.st0{fill:#0085D7;}
	.st1{fill:#FFFFFF;}
</style>
<g>
	<g>
		<path class="st0" d="M677.44,297.37v64.33c-10.56,1.03-22.47,1.34-35.44,0.27c-42.31-3.51-74.69-20.05-94.11-32.43
			c19.68,0.81,48.14-0.41,80.39-10.44C648.25,312.88,664.7,304.83,677.44,297.37z"/>
		<path class="st0" d="M681.44,344.82v64.33c-10.56,1.03-22.47,1.34-35.44,0.27c-42.31-3.51-74.69-20.05-94.11-32.43
			c19.68,0.81,48.14-0.41,80.39-10.44C652.26,360.33,668.71,352.28,681.44,344.82z"/>
		<circle class="st0" cx="736.89" cy="348.25" r="81.75"/>
	</g>
	<circle class="st1" cx="771" cy="323" r="10.5"/>
</g>
</svg>
